<?xml version="1.0" standalone="no"?>
<!DOCTYPE svg PUBLIC "-//W3C//DTD SVG 1.1//EN" "http://www.w3.org/Graphics/SVG/1.1/DTD/svg11.dtd">
<svg xmlns="http://www.w3.org/2000/svg" xmlns:xlink="http://www.w3.org/1999/xlink" version="1.1" id="Camada_1" x="0px" y="0px" viewBox="0 0 300 300" style="enable-background:new 0 0 300 300;" xml:space="preserve" width="300" height="300">
<style type="text/css">
	.st0{fill:#FFFFFF;}
</style>
<g>
	<g>
		<g>
			<path class="st0" d="M61.48,218.55H28.94c-3.5,0-6.34-2.84-6.34-6.34V80.79c0-3.5,2.84-6.34,6.34-6.34h32.54     c3.5,0,6.34,2.84,6.34,6.34V212.2C67.82,215.7,64.97,218.55,61.48,218.55z M61.37,80.79L28.94,80.9l0.11,131.31l32.31-0.11V80.79     z"/>
		</g>
	</g>
</g>
<g>
	<g>
		<g>
			<path class="st0" d="M116.91,218.55H89.78c-4.16,0-7.55-3.39-7.55-7.55V82c0-4.16,3.39-7.55,7.55-7.55h27.13     c4.16,0,7.55,3.39,7.55,7.55v129C124.46,215.16,121.07,218.55,116.91,218.55z M89.78,80.9c-0.6,0-1.1,0.49-1.1,1.1v129     c0,0.6,0.49,1.1,1.1,1.1h27.13c0.6,0,1.1-0.49,1.1-1.1V82c0-0.61-0.49-1.1-1.1-1.1H89.78z"/>
		</g>
	</g>
</g>
<g>
	<g>
		<g>
			<path class="st0" d="M272.89,225.56c-0.79,0-1.58-0.29-2.2-0.87L115.46,80.03c-1.3-1.21-1.38-3.26-0.16-4.56     c1.21-1.31,3.25-1.38,4.56-0.16l155.23,144.66c1.3,1.21,1.38,3.26,0.16,4.56C274.61,225.21,273.75,225.56,272.89,225.56z"/>
		</g>
	</g>
</g>
<g>
	<g>
		<g>
			<path class="st0" d="M216.94,158.48c-0.67,0-1.34-0.2-1.91-0.63c-1.43-1.06-1.74-3.08-0.68-4.51l57.03-77.33     c1.06-1.44,3.08-1.74,4.51-0.68c1.43,1.06,1.74,3.08,0.68,4.51l-57.03,77.33C218.91,158.02,217.93,158.48,216.94,158.48z"/>
		</g>
	</g>
</g>
<g>
	<g>
		<g>
			<path class="st0" d="M274.17,188.72c-1.78,0-3.22-1.44-3.23-3.21l-0.4-106.52c-0.01-1.78,1.43-3.23,3.21-3.24c0,0,0.01,0,0.01,0     c1.78,0,3.22,1.44,3.23,3.21l0.4,106.52c0.01,1.78-1.43,3.23-3.21,3.24C274.18,188.72,274.18,188.72,274.17,188.72z"/>
		</g>
	</g>
</g>
</svg>